<mxfile host="app.diagrams.net" modified="2023-08-19T05:10:30.008Z" agent="Mozilla/5.0 (Macintosh; Intel Mac OS X 10.15; rv:109.0) Gecko/20100101 Firefox/117.0" etag="XlR0JruCsYQc2oAodXEX" version="21.6.6" type="github">
  <diagram name="Page-1" id="T_7_yyplb90zFD1QTxmu">
    <mxGraphModel dx="1258" dy="1370" grid="1" gridSize="10" guides="1" tooltips="1" connect="1" arrows="1" fold="1" page="1" pageScale="1" pageWidth="850" pageHeight="1100" math="0" shadow="0">
      <root>
        <mxCell id="0" />
        <mxCell id="1" parent="0" />
        <mxCell id="37umRugOSM91uCkc00jT-15" value="" style="group" vertex="1" connectable="0" parent="1">
          <mxGeometry x="-660" y="-80" width="850" height="725" as="geometry" />
        </mxCell>
        <mxCell id="37umRugOSM91uCkc00jT-6" value="" style="ellipse;whiteSpace=wrap;html=1;aspect=fixed;" vertex="1" parent="37umRugOSM91uCkc00jT-15">
          <mxGeometry x="110" y="100" width="160" height="160" as="geometry" />
        </mxCell>
        <mxCell id="37umRugOSM91uCkc00jT-3" value="" style="endArrow=classic;html=1;rounded=0;startArrow=classic;startFill=1;" edge="1" parent="37umRugOSM91uCkc00jT-15">
          <mxGeometry width="50" height="50" relative="1" as="geometry">
            <mxPoint x="189.72" y="340" as="sourcePoint" />
            <mxPoint x="189.72" y="230" as="targetPoint" />
            <Array as="points">
              <mxPoint x="190" y="320" />
            </Array>
          </mxGeometry>
        </mxCell>
        <mxCell id="37umRugOSM91uCkc00jT-2" value="Internet" style="ellipse;shape=cloud;whiteSpace=wrap;html=1;" vertex="1" parent="37umRugOSM91uCkc00jT-15">
          <mxGeometry x="130" y="140" width="120" height="80" as="geometry" />
        </mxCell>
        <mxCell id="37umRugOSM91uCkc00jT-4" value="" style="endArrow=classic;html=1;rounded=0;" edge="1" parent="37umRugOSM91uCkc00jT-15">
          <mxGeometry width="50" height="50" relative="1" as="geometry">
            <mxPoint x="300" y="180" as="sourcePoint" />
            <mxPoint x="420" y="180" as="targetPoint" />
          </mxGeometry>
        </mxCell>
        <mxCell id="37umRugOSM91uCkc00jT-8" value="The external collection of networks" style="whiteSpace=wrap;html=1;" vertex="1" parent="37umRugOSM91uCkc00jT-15">
          <mxGeometry x="320" y="60" width="120" height="60" as="geometry" />
        </mxCell>
        <mxCell id="37umRugOSM91uCkc00jT-9" value="" style="endArrow=none;dashed=1;html=1;dashPattern=1 3;strokeWidth=2;rounded=0;" edge="1" parent="37umRugOSM91uCkc00jT-15">
          <mxGeometry width="50" height="50" relative="1" as="geometry">
            <mxPoint x="260" y="130" as="sourcePoint" />
            <mxPoint x="310" y="80" as="targetPoint" />
          </mxGeometry>
        </mxCell>
        <mxCell id="37umRugOSM91uCkc00jT-12" value="&lt;div&gt;&lt;br&gt;&lt;/div&gt;&lt;div&gt;&lt;br&gt;&lt;/div&gt;&lt;div&gt;&lt;br&gt;&lt;/div&gt;&lt;div&gt;&lt;br&gt;&lt;/div&gt;&lt;div&gt;&lt;br&gt;&lt;/div&gt;&lt;div&gt;&lt;br&gt;&lt;/div&gt;&lt;div&gt;&lt;br&gt;&lt;/div&gt;&lt;div&gt;&lt;br&gt;&lt;/div&gt;&lt;div&gt;&lt;br&gt;&lt;/div&gt;&lt;div&gt;&lt;br&gt;&lt;/div&gt;&lt;div&gt;&lt;br&gt;&lt;/div&gt;&lt;div&gt;&lt;br&gt;&lt;/div&gt;&lt;div&gt;&lt;br&gt;&lt;/div&gt;&lt;div&gt;&lt;br&gt;&lt;/div&gt;&lt;div&gt;&lt;br&gt;&lt;/div&gt;&lt;div&gt;Google Network&lt;br&gt;&lt;/div&gt;" style="ellipse;whiteSpace=wrap;html=1;aspect=fixed;" vertex="1" parent="37umRugOSM91uCkc00jT-15">
          <mxGeometry x="480" width="370" height="370" as="geometry" />
        </mxCell>
        <mxCell id="37umRugOSM91uCkc00jT-10" value="Google&#39;s Router" style="rounded=1;whiteSpace=wrap;html=1;" vertex="1" parent="37umRugOSM91uCkc00jT-15">
          <mxGeometry x="500" y="150" width="120" height="60" as="geometry" />
        </mxCell>
        <mxCell id="37umRugOSM91uCkc00jT-11" value="" style="endArrow=classic;startArrow=classic;html=1;rounded=0;" edge="1" parent="37umRugOSM91uCkc00jT-15">
          <mxGeometry width="50" height="50" relative="1" as="geometry">
            <mxPoint x="630" y="170" as="sourcePoint" />
            <mxPoint x="710" y="170" as="targetPoint" />
          </mxGeometry>
        </mxCell>
        <mxCell id="37umRugOSM91uCkc00jT-5" value="Google" style="image;points=[];aspect=fixed;html=1;align=center;shadow=0;dashed=0;image=img/lib/allied_telesis/computer_and_terminals/Server_Desktop.svg;" vertex="1" parent="37umRugOSM91uCkc00jT-15">
          <mxGeometry x="730" y="120" width="94.67" height="120" as="geometry" />
        </mxCell>
        <mxCell id="37umRugOSM91uCkc00jT-14" value="&lt;div&gt;You typing:&lt;/div&gt;&lt;div&gt;https://google.com&lt;br&gt;&lt;/div&gt;" style="ellipse;whiteSpace=wrap;html=1;aspect=fixed;" vertex="1" parent="37umRugOSM91uCkc00jT-15">
          <mxGeometry y="345" width="380" height="380" as="geometry" />
        </mxCell>
        <mxCell id="37umRugOSM91uCkc00jT-1" value="Router" style="rounded=1;whiteSpace=wrap;html=1;" vertex="1" parent="37umRugOSM91uCkc00jT-15">
          <mxGeometry x="130" y="370" width="120" height="60" as="geometry" />
        </mxCell>
        <mxCell id="37umRugOSM91uCkc00jT-16" value="" style="endArrow=classic;startArrow=classic;html=1;rounded=0;entryX=0.421;entryY=0.224;entryDx=0;entryDy=0;entryPerimeter=0;" edge="1" parent="37umRugOSM91uCkc00jT-15" target="37umRugOSM91uCkc00jT-14">
          <mxGeometry width="50" height="50" relative="1" as="geometry">
            <mxPoint x="160" y="490" as="sourcePoint" />
            <mxPoint x="210" y="440" as="targetPoint" />
          </mxGeometry>
        </mxCell>
        <mxCell id="37umRugOSM91uCkc00jT-13" value="Your laptop " style="sketch=0;aspect=fixed;pointerEvents=1;shadow=0;dashed=0;html=1;strokeColor=none;labelPosition=center;verticalLabelPosition=bottom;verticalAlign=top;align=center;fillColor=#00188D;shape=mxgraph.azure.laptop" vertex="1" parent="37umRugOSM91uCkc00jT-15">
          <mxGeometry x="115" y="490" width="150" height="90" as="geometry" />
        </mxCell>
      </root>
    </mxGraphModel>
  </diagram>
</mxfile>
